<svg width="60" height="60" viewBox="0 0 60 60" fill="none" xmlns="http://www.w3.org/2000/svg">
<rect x="-0.000244141" width="60" height="60" rx="30" fill="black"/>
<path d="M25.2263 37V27.112L26.8423 28.648H23.3063V25.8H29.0023V37H25.2263ZM32.3458 37.16C31.7485 37.16 31.2472 36.968 30.8418 36.584C30.4365 36.1893 30.2338 35.688 30.2338 35.08C30.2338 34.4613 30.4365 33.9653 30.8418 33.592C31.2472 33.2187 31.7485 33.032 32.3458 33.032C32.9432 33.032 33.4445 33.2187 33.8498 33.592C34.2552 33.9653 34.4578 34.4613 34.4578 35.08C34.4578 35.688 34.2552 36.1893 33.8498 36.584C33.4445 36.968 32.9432 37.16 32.3458 37.16Z" fill="white"/>
</svg>
