<svg width="60" height="60" viewBox="0 0 60 60" fill="none" xmlns="http://www.w3.org/2000/svg">
<rect x="-0.000244141" width="60" height="60" rx="30" fill="black"/>
<path d="M22.5728 37V34.68L26.6208 30.936C26.8768 30.6907 27.0634 30.4773 27.1808 30.296C27.3088 30.1147 27.3941 29.9547 27.4368 29.816C27.4794 29.6667 27.5008 29.528 27.5008 29.4C27.5008 29.1227 27.4101 28.9093 27.2288 28.76C27.0474 28.6 26.7754 28.52 26.4128 28.52C26.0821 28.52 25.7674 28.6107 25.4688 28.792C25.1701 28.9627 24.9354 29.2187 24.7648 29.56L21.9168 28.136C22.3221 27.368 22.9301 26.744 23.7408 26.264C24.5514 25.784 25.5594 25.544 26.7648 25.544C27.6501 25.544 28.4341 25.688 29.1168 25.976C29.7994 26.264 30.3328 26.6693 30.7168 27.192C31.1008 27.7147 31.2928 28.3333 31.2928 29.048C31.2928 29.4107 31.2448 29.7733 31.1488 30.136C31.0634 30.4987 30.8821 30.8827 30.6048 31.288C30.3274 31.6827 29.9168 32.1253 29.3728 32.616L26.3328 35.384L25.7408 34.072H31.5488V37H22.5728ZM34.4474 37.16C33.85 37.16 33.3487 36.968 32.9434 36.584C32.538 36.1893 32.3354 35.688 32.3354 35.08C32.3354 34.4613 32.538 33.9653 32.9434 33.592C33.3487 33.2187 33.85 33.032 34.4474 33.032C35.0447 33.032 35.546 33.2187 35.9514 33.592C36.3567 33.9653 36.5594 34.4613 36.5594 35.08C36.5594 35.688 36.3567 36.1893 35.9514 36.584C35.546 36.968 35.0447 37.16 34.4474 37.16Z" fill="white"/>
</svg>
