<svg width="60" height="60" viewBox="0 0 60 60" fill="none" xmlns="http://www.w3.org/2000/svg">
<rect x="-0.000244141" width="60" height="60" rx="30" fill="black"/>
<path d="M26.476 37.256C25.708 37.256 24.9293 37.1707 24.14 37C23.3507 36.8293 22.6573 36.5787 22.06 36.248L23.34 33.464C23.82 33.7413 24.3213 33.9493 24.844 34.088C25.3773 34.216 25.8787 34.28 26.348 34.28C26.7747 34.28 27.1213 34.2107 27.388 34.072C27.6653 33.9227 27.804 33.704 27.804 33.416C27.804 33.1707 27.7027 32.984 27.5 32.856C27.2973 32.7173 26.956 32.648 26.476 32.648H24.988V30.328L27.884 27.384L28.22 28.648H22.636V25.8H30.988V28.12L28.092 31.064L26.284 30.04H27.276C28.684 30.04 29.756 30.3547 30.492 30.984C31.228 31.6133 31.596 32.424 31.596 33.416C31.596 34.056 31.4147 34.6693 31.052 35.256C30.7 35.8427 30.1453 36.3227 29.388 36.696C28.6413 37.0693 27.6707 37.256 26.476 37.256ZM34.4161 37.16C33.8188 37.16 33.3175 36.968 32.9121 36.584C32.5068 36.1893 32.3041 35.688 32.3041 35.08C32.3041 34.4613 32.5068 33.9653 32.9121 33.592C33.3175 33.2187 33.8188 33.032 34.4161 33.032C35.0135 33.032 35.5148 33.2187 35.9201 33.592C36.3255 33.9653 36.5281 34.4613 36.5281 35.08C36.5281 35.688 36.3255 36.1893 35.9201 36.584C35.5148 36.968 35.0135 37.16 34.4161 37.16Z" fill="white"/>
</svg>
