<svg width="40" height="40" viewBox="0 0 40 40" fill="none" xmlns="http://www.w3.org/2000/svg">
<path d="M20 19.2337C20 19.2337 18.93 12.5325 18.93 12.0656C18.93 11.5988 19.41 11.2194 20 11.2194C20.59 11.2194 21.07 11.5981 21.07 12.0656C21.07 12.5331 20 19.2337 20 19.2337ZM20 20.7981C20 20.7981 21.07 27.4987 21.07 27.9662C21.07 28.4337 20.59 28.8125 20 28.8125C19.41 28.8125 18.93 28.4344 18.93 27.9662C18.93 27.4981 20 20.7981 20 20.7981ZM19.2175 20.0156C19.2175 20.0156 12.5169 21.0856 12.05 21.0856C11.5825 21.0856 11.2038 20.6063 11.2038 20.0156C11.2038 19.4256 11.5825 18.9462 12.05 18.9462C12.5169 18.9462 19.2175 20.0156 19.2175 20.0156ZM20.7825 20.0156C20.7825 20.0156 27.4831 18.9462 27.9506 18.9462C28.4175 18.9462 28.7969 19.4256 28.7969 20.0156C28.7969 20.6063 28.4181 21.0856 27.9506 21.0856C27.4831 21.0856 20.7825 20.0156 20.7825 20.0156ZM19.4463 19.4631C19.4463 19.4631 13.9519 15.4819 13.6225 15.1513C13.2919 14.8212 13.3625 14.2144 13.7806 13.7969C14.1981 13.3794 14.8044 13.3088 15.135 13.6388C15.4644 13.9688 19.4463 19.4631 19.4463 19.4631ZM20.5538 20.5694C20.5538 20.5694 26.0481 24.5506 26.3775 24.8813C26.7081 25.2119 26.6375 25.8181 26.2194 26.2362C25.8019 26.6537 25.1956 26.7244 24.865 26.3937C24.5356 26.0631 20.5538 20.5694 20.5538 20.5694ZM19.4463 20.5694C19.4463 20.5694 15.4644 26.0631 15.135 26.3937C14.8044 26.7244 14.1981 26.6537 13.7806 26.2362C13.3625 25.8181 13.2919 25.2119 13.6225 24.8813C13.9519 24.5506 19.4463 20.5694 19.4463 20.5694ZM20.5538 19.4631C20.5538 19.4631 24.5356 13.9688 24.865 13.6388C25.1956 13.3088 25.8019 13.3794 26.2194 13.7969C26.6375 14.2144 26.7081 14.8212 26.3775 15.1513C26.0481 15.4819 20.5538 19.4631 20.5538 19.4631ZM19.4725 18.7113C19.4725 18.7113 13.9631 7.92875 13.6481 7.14875C13.3331 6.36875 13.5212 5.5575 14.0688 5.33625C14.6169 5.115 15.3156 5.56812 15.6306 6.34812C15.9456 7.12687 19.4725 18.7113 19.4725 18.7113ZM20.5275 21.3219C20.5275 21.3219 26.0369 32.1038 26.3519 32.8844C26.6669 33.6637 26.4788 34.475 25.9313 34.6956C25.3831 34.9175 24.6844 34.465 24.3694 33.685C24.0544 32.905 20.5275 21.3219 20.5275 21.3219ZM18.6944 20.5437C18.6944 20.5437 7.91188 26.0531 7.13188 26.3681C6.35188 26.6838 5.54062 26.495 5.31938 25.9469C5.09812 25.4 5.55125 24.7 6.33125 24.385C7.11063 24.07 18.6944 20.5437 18.6944 20.5437ZM21.3056 19.4888C21.3056 19.4888 32.0881 13.9794 32.8681 13.6644C33.6481 13.3488 34.4594 13.5381 34.6806 14.0856C34.9019 14.6331 34.4487 15.3325 33.6688 15.6475C32.8894 15.9619 21.3056 19.4888 21.3056 19.4888ZM18.7038 19.4662C18.7038 19.4662 7.18313 15.7381 6.40938 15.4094C5.63562 15.0813 5.195 14.3744 5.42562 13.83C5.65625 13.2869 6.47188 13.1125 7.24563 13.4412C8.01938 13.7688 18.7038 19.4662 18.7038 19.4662ZM21.2963 20.5662C21.2963 20.5662 32.8169 24.2944 33.5906 24.6225C34.3644 24.9513 34.805 25.6588 34.5744 26.2019C34.3438 26.7463 33.5281 26.9206 32.7544 26.5913C31.9806 26.2631 21.2963 20.5662 21.2963 20.5662ZM19.45 21.3125C19.45 21.3125 15.7219 32.8331 15.3931 33.6075C15.0644 34.3812 14.3575 34.8219 13.8137 34.5913C13.27 34.36 13.0963 33.545 13.4237 32.7712C13.7531 31.9969 19.45 21.3125 19.45 21.3125ZM20.55 18.72C20.55 18.72 24.2781 7.19938 24.6069 6.42562C24.9356 5.65125 25.6425 5.21125 26.1862 5.44187C26.73 5.6725 26.9044 6.48688 26.5763 7.26125C26.2469 8.03562 20.55 18.72 20.55 18.72ZM20.0037 29.4175C20.0037 29.4175 21.075 37.22 21.075 37.7638C21.075 38.3075 20.5962 38.75 20.0056 38.75C19.415 38.75 18.9363 38.3094 18.9363 37.765C18.9363 37.2206 20.0037 29.4175 20.0037 29.4175ZM19.9969 9.97188C19.9969 9.97188 18.925 2.67938 18.925 2.17125C18.925 1.66312 19.4037 1.25 19.9944 1.25C20.585 1.25 21.0637 1.66188 21.0637 2.17063C21.0637 2.67938 19.9969 9.97188 19.9969 9.97188ZM26.6619 26.6562C26.6619 26.6562 32.9369 31.4163 33.3206 31.8006C33.7062 32.1856 33.6794 32.8356 33.2619 33.2537C32.8444 33.6712 32.1938 33.6981 31.8094 33.3137C31.4244 32.93 26.6619 26.6562 26.6619 26.6562ZM12.9069 12.9113C12.9069 12.9113 6.9925 8.5125 6.6325 8.15312C6.27313 7.79313 6.32 7.16313 6.7375 6.74563C7.155 6.3275 7.78562 6.28062 8.145 6.64062C8.505 6.99937 12.9069 12.9113 12.9069 12.9113ZM26.6619 13.3431C26.6619 13.3431 31.4244 7.07062 31.8094 6.68625C32.1938 6.30125 32.8444 6.32812 33.2619 6.74625C33.6794 7.16375 33.7062 7.81437 33.3206 8.19875C32.9369 8.5825 26.6619 13.3431 26.6619 13.3431ZM12.9069 27.0881C12.9069 27.0881 8.505 33.0006 8.145 33.3594C7.78562 33.7194 7.155 33.6719 6.7375 33.2544C6.32 32.8363 6.27313 32.2063 6.6325 31.8469C6.9925 31.4875 12.9069 27.0881 12.9069 27.0881ZM29.4175 19.9963C29.4175 19.9963 37.22 18.925 37.7644 18.925C38.3088 18.9244 38.75 19.4037 38.75 19.9937C38.7506 20.5844 38.31 21.0637 37.7656 21.0637C37.2212 21.0644 29.4175 19.9963 29.4175 19.9963ZM9.9725 20.0037C9.9725 20.0037 2.67875 21.0744 2.17125 21.075C1.66187 21.075 1.25 20.5956 1.25 20.0056C1.25 19.415 1.66187 18.9356 2.17125 18.9356C2.67875 18.9356 9.9725 20.0037 9.9725 20.0037Z" fill="black"/>
<path d="M12.9549 4.33491C13.5901 4.33491 14.1049 3.82004 14.1049 3.18491C14.1049 2.54978 13.5901 2.03491 12.9549 2.03491C12.3198 2.03491 11.8049 2.54978 11.8049 3.18491C11.8049 3.82004 12.3198 4.33491 12.9549 4.33491Z" fill="black"/>
<path d="M27.2149 4.33491C27.8501 4.33491 28.3649 3.82004 28.3649 3.18491C28.3649 2.54978 27.8501 2.03491 27.2149 2.03491C26.5798 2.03491 26.0649 2.54978 26.0649 3.18491C26.0649 3.82004 26.5798 4.33491 27.2149 4.33491Z" fill="black"/>
<path d="M12.6306 38.0412C13.2661 38.0412 13.7812 37.5261 13.7812 36.8906C13.7812 36.2551 13.2661 35.74 12.6306 35.74C11.9951 35.74 11.48 36.2551 11.48 36.8906C11.48 37.5261 11.9951 38.0412 12.6306 38.0412Z" fill="black"/>
<path d="M26.8906 38.0412C27.5261 38.0412 28.0412 37.5261 28.0412 36.8906C28.0412 36.2551 27.5261 35.74 26.8906 35.74C26.2551 35.74 25.74 36.2551 25.74 36.8906C25.74 37.5261 26.2551 38.0412 26.8906 38.0412Z" fill="black"/>
<path d="M3.06992 28.1557C3.70505 28.1557 4.21992 27.6408 4.21992 27.0057C4.21992 26.3706 3.70505 25.8557 3.06992 25.8557C2.43479 25.8557 1.91992 26.3706 1.91992 27.0057C1.91992 27.6408 2.43479 28.1557 3.06992 28.1557Z" fill="black"/>
<path d="M3.06992 13.8957C3.70505 13.8957 4.21992 13.3808 4.21992 12.7457C4.21992 12.1106 3.70505 11.5957 3.06992 11.5957C2.43479 11.5957 1.91992 12.1106 1.91992 12.7457C1.91992 13.3808 2.43479 13.8957 3.06992 13.8957Z" fill="black"/>
<path d="M36.7756 28.4807C37.4111 28.4807 37.9262 27.9655 37.9262 27.3301C37.9262 26.6946 37.4111 26.1794 36.7756 26.1794C36.1402 26.1794 35.625 26.6946 35.625 27.3301C35.625 27.9655 36.1402 28.4807 36.7756 28.4807Z" fill="black"/>
<path d="M36.7757 14.2199C37.4109 14.2199 37.9257 13.705 37.9257 13.0699C37.9257 12.4348 37.4109 11.9199 36.7757 11.9199C36.1406 11.9199 35.6257 12.4348 35.6257 13.0699C35.6257 13.705 36.1406 14.2199 36.7757 14.2199Z" fill="black"/>
</svg>
