<svg width="64" height="64" viewBox="0 0 64 64" fill="none" xmlns="http://www.w3.org/2000/svg">
<path d="M31.9998 30.774C31.9998 30.774 30.2878 20.052 30.2878 19.305C30.2878 18.558 31.0558 17.951 31.9998 17.951C32.9438 17.951 33.7118 18.557 33.7118 19.305C33.7118 20.053 31.9998 30.774 31.9998 30.774ZM31.9998 33.277C31.9998 33.277 33.7118 43.998 33.7118 44.746C33.7118 45.494 32.9438 46.1 31.9998 46.1C31.0558 46.1 30.2878 45.495 30.2878 44.746C30.2878 43.997 31.9998 33.277 31.9998 33.277ZM30.7478 32.025C30.7478 32.025 20.0268 33.737 19.2798 33.737C18.5318 33.737 17.9258 32.97 17.9258 32.025C17.9258 31.081 18.5318 30.314 19.2798 30.314C20.0268 30.314 30.7478 32.025 30.7478 32.025ZM33.2518 32.025C33.2518 32.025 43.9728 30.314 44.7208 30.314C45.4678 30.314 46.0748 31.081 46.0748 32.025C46.0748 32.97 45.4688 33.737 44.7208 33.737C43.9728 33.737 33.2518 32.025 33.2518 32.025ZM31.1138 31.141C31.1138 31.141 22.3228 24.771 21.7958 24.242C21.2668 23.714 21.3798 22.743 22.0488 22.075C22.7168 21.407 23.6868 21.294 24.2158 21.822C24.7428 22.35 31.1138 31.141 31.1138 31.141ZM32.8858 32.911C32.8858 32.911 41.6768 39.281 42.2038 39.81C42.7328 40.339 42.6198 41.309 41.9508 41.978C41.2828 42.646 40.3128 42.759 39.7838 42.23C39.2568 41.701 32.8858 32.911 32.8858 32.911ZM31.1138 32.911C31.1138 32.911 24.7428 41.701 24.2158 42.23C23.6868 42.759 22.7168 42.646 22.0488 41.978C21.3798 41.309 21.2668 40.339 21.7958 39.81C22.3228 39.281 31.1138 32.911 31.1138 32.911ZM32.8858 31.141C32.8858 31.141 39.2568 22.35 39.7838 21.822C40.3128 21.294 41.2828 21.407 41.9508 22.075C42.6198 22.743 42.7328 23.714 42.2038 24.242C41.6768 24.771 32.8858 31.141 32.8858 31.141ZM31.1558 29.938C31.1558 29.938 22.3408 12.686 21.8368 11.438C21.3328 10.19 21.6338 8.892 22.5098 8.538C23.3868 8.184 24.5048 8.909 25.0088 10.157C25.5128 11.403 31.1558 29.938 31.1558 29.938ZM32.8438 34.115C32.8438 34.115 41.6588 51.366 42.1628 52.615C42.6668 53.862 42.3658 55.16 41.4898 55.513C40.6128 55.868 39.4948 55.144 38.9908 53.896C38.4868 52.648 32.8438 34.115 32.8438 34.115ZM29.9108 32.87C29.9108 32.87 12.6588 41.685 11.4108 42.189C10.1628 42.694 8.86476 42.392 8.51076 41.515C8.15676 40.64 8.88176 39.52 10.1298 39.016C11.3768 38.512 29.9108 32.87 29.9108 32.87ZM34.0888 31.182C34.0888 31.182 51.3408 22.367 52.5888 21.863C53.8368 21.358 55.1348 21.661 55.4888 22.537C55.8428 23.413 55.1178 24.532 53.8698 25.036C52.6228 25.539 34.0888 31.182 34.0888 31.182ZM29.9258 31.146C29.9258 31.146 11.4928 25.181 10.2548 24.655C9.01676 24.13 8.31176 22.999 8.68076 22.128C9.04976 21.259 10.3548 20.98 11.5928 21.506C12.8308 22.03 29.9258 31.146 29.9258 31.146ZM34.0738 32.906C34.0738 32.906 52.5068 38.871 53.7448 39.396C54.9828 39.922 55.6878 41.054 55.3188 41.923C54.9498 42.794 53.6448 43.073 52.4068 42.546C51.1688 42.021 34.0738 32.906 34.0738 32.906ZM31.1198 34.1C31.1198 34.1 25.1548 52.533 24.6288 53.772C24.1028 55.01 22.9718 55.715 22.1018 55.346C21.2318 54.976 20.9538 53.672 21.4778 52.434C22.0048 51.195 31.1198 34.1 31.1198 34.1ZM32.8798 29.952C32.8798 29.952 38.8448 11.519 39.3708 10.281C39.8968 9.042 41.0278 8.338 41.8978 8.707C42.7678 9.076 43.0468 10.379 42.5218 11.618C41.9948 12.857 32.8798 29.952 32.8798 29.952ZM32.0058 47.068C32.0058 47.068 33.7198 59.552 33.7198 60.422C33.7198 61.292 32.9538 62 32.0088 62C31.0638 62 30.2978 61.295 30.2978 60.424C30.2978 59.553 32.0058 47.068 32.0058 47.068ZM31.9948 15.955C31.9948 15.955 30.2798 4.287 30.2798 3.474C30.2798 2.661 31.0458 2 31.9908 2C32.9358 2 33.7018 2.659 33.7018 3.473C33.7018 4.287 31.9948 15.955 31.9948 15.955ZM42.6588 42.65C42.6588 42.65 52.6988 50.266 53.3128 50.881C53.9298 51.497 53.8868 52.537 53.2188 53.206C52.5508 53.874 51.5098 53.917 50.8948 53.302C50.2788 52.688 42.6588 42.65 42.6588 42.65ZM20.6508 20.658C20.6508 20.658 11.1878 13.62 10.6118 13.045C10.0368 12.469 10.1118 11.461 10.7798 10.793C11.4478 10.124 12.4568 10.049 13.0318 10.625C13.6078 11.199 20.6508 20.658 20.6508 20.658ZM42.6588 21.349C42.6588 21.349 50.2788 11.313 50.8948 10.698C51.5098 10.082 52.5508 10.125 53.2188 10.794C53.8868 11.462 53.9298 12.503 53.3128 13.118C52.6988 13.732 42.6588 21.349 42.6588 21.349ZM20.6508 43.341C20.6508 43.341 13.6078 52.801 13.0318 53.375C12.4568 53.951 11.4478 53.875 10.7798 53.207C10.1118 52.538 10.0368 51.53 10.6118 50.955C11.1878 50.38 20.6508 43.341 20.6508 43.341ZM47.0678 31.994C47.0678 31.994 59.5518 30.28 60.4228 30.28C61.2938 30.279 61.9998 31.046 61.9998 31.99C62.0008 32.935 61.2958 33.702 60.4248 33.702C59.5538 33.703 47.0678 31.994 47.0678 31.994ZM15.9558 32.006C15.9558 32.006 4.28576 33.719 3.47376 33.72C2.65876 33.72 1.99976 32.953 1.99976 32.009C1.99976 31.064 2.65876 30.297 3.47376 30.297C4.28576 30.297 15.9558 32.006 15.9558 32.006Z" fill="black"/>
<path d="M20.7277 6.9361C21.7439 6.9361 22.5677 6.11231 22.5677 5.0961C22.5677 4.0799 21.7439 3.2561 20.7277 3.2561C19.7115 3.2561 18.8877 4.0799 18.8877 5.0961C18.8877 6.11231 19.7115 6.9361 20.7277 6.9361Z" fill="black"/>
<path d="M43.5437 6.9361C44.5599 6.9361 45.3837 6.11231 45.3837 5.0961C45.3837 4.0799 44.5599 3.2561 43.5437 3.2561C42.5275 3.2561 41.7037 4.0799 41.7037 5.0961C41.7037 6.11231 42.5275 6.9361 43.5437 6.9361Z" fill="black"/>
<path d="M20.2088 60.8661C21.2256 60.8661 22.0498 60.0418 22.0498 59.0251C22.0498 58.0083 21.2256 57.1841 20.2088 57.1841C19.192 57.1841 18.3678 58.0083 18.3678 59.0251C18.3678 60.0418 19.192 60.8661 20.2088 60.8661Z" fill="black"/>
<path d="M43.0247 60.8661C44.0415 60.8661 44.8657 60.0418 44.8657 59.0251C44.8657 58.0083 44.0415 57.1841 43.0247 57.1841C42.008 57.1841 41.1837 58.0083 41.1837 59.0251C41.1837 60.0418 42.008 60.8661 43.0247 60.8661Z" fill="black"/>
<path d="M4.91178 45.0489C5.92798 45.0489 6.75178 44.2251 6.75178 43.2089C6.75178 42.1927 5.92798 41.3689 4.91178 41.3689C3.89557 41.3689 3.07178 42.1927 3.07178 43.2089C3.07178 44.2251 3.89557 45.0489 4.91178 45.0489Z" fill="black"/>
<path d="M4.91178 22.233C5.92798 22.233 6.75178 21.4092 6.75178 20.393C6.75178 19.3768 5.92798 18.553 4.91178 18.553C3.89557 18.553 3.07178 19.3768 3.07178 20.393C3.07178 21.4092 3.89557 22.233 4.91178 22.233Z" fill="black"/>
<path d="M58.8408 45.569C59.8575 45.569 60.6818 44.7447 60.6818 43.728C60.6818 42.7112 59.8575 41.887 58.8408 41.887C57.824 41.887 56.9998 42.7112 56.9998 43.728C56.9998 44.7447 57.824 45.569 58.8408 45.569Z" fill="black"/>
<path d="M58.8407 22.752C59.8569 22.752 60.6807 21.9282 60.6807 20.912C60.6807 19.8958 59.8569 19.072 58.8407 19.072C57.8245 19.072 57.0007 19.8958 57.0007 20.912C57.0007 21.9282 57.8245 22.752 58.8407 22.752Z" fill="black"/>
</svg>
