<svg width="145" height="14" viewBox="0 0 145 14" fill="none" xmlns="http://www.w3.org/2000/svg">
<path d="M5.634 13.216C4.626 13.216 3.66 13.084 2.736 12.82C1.812 12.544 1.068 12.19 0.504 11.758L1.494 9.562C2.034 9.946 2.67 10.264 3.402 10.516C4.146 10.756 4.896 10.876 5.652 10.876C6.228 10.876 6.69 10.822 7.038 10.714C7.398 10.594 7.662 10.432 7.83 10.228C7.998 10.024 8.082 9.79 8.082 9.526C8.082 9.19 7.95 8.926 7.686 8.734C7.422 8.53 7.074 8.368 6.642 8.248C6.21 8.116 5.73 7.996 5.202 7.888C4.686 7.768 4.164 7.624 3.636 7.456C3.12 7.288 2.646 7.072 2.214 6.808C1.782 6.544 1.428 6.196 1.152 5.764C0.888 5.332 0.756 4.78 0.756 4.108C0.756 3.388 0.948 2.734 1.332 2.146C1.728 1.546 2.316 1.072 3.096 0.723999C3.888 0.364 4.878 0.184 6.066 0.184C6.858 0.184 7.638 0.28 8.406 0.471999C9.174 0.651999 9.852 0.927999 10.44 1.3L9.54 3.514C8.952 3.178 8.364 2.932 7.776 2.776C7.188 2.608 6.612 2.524 6.048 2.524C5.484 2.524 5.022 2.59 4.662 2.722C4.302 2.854 4.044 3.028 3.888 3.244C3.732 3.448 3.654 3.688 3.654 3.964C3.654 4.288 3.786 4.552 4.05 4.756C4.314 4.948 4.662 5.104 5.094 5.224C5.526 5.344 6 5.464 6.516 5.584C7.044 5.704 7.566 5.842 8.082 5.998C8.61 6.154 9.09 6.364 9.522 6.628C9.954 6.892 10.302 7.24 10.566 7.672C10.842 8.104 10.98 8.65 10.98 9.31C10.98 10.018 10.782 10.666 10.386 11.254C9.99 11.842 9.396 12.316 8.604 12.676C7.824 13.036 6.834 13.216 5.634 13.216ZM12.9725 13V0.399999H15.8885V13H12.9725ZM21.5608 5.476H27.6268V7.744H21.5608V5.476ZM21.7768 10.66H28.6348V13H18.8788V0.399999H28.4008V2.74H21.7768V10.66ZM30.9549 13V0.399999H36.4089C37.5369 0.399999 38.5089 0.585999 39.3249 0.957999C40.1409 1.318 40.7709 1.84 41.2149 2.524C41.6589 3.208 41.8809 4.024 41.8809 4.972C41.8809 5.908 41.6589 6.718 41.2149 7.402C40.7709 8.074 40.1409 8.59 39.3249 8.95C38.5089 9.31 37.5369 9.49 36.4089 9.49H32.5749L33.8709 8.212V13H30.9549ZM38.9649 13L35.8149 8.428H38.9289L42.1149 13H38.9649ZM33.8709 8.536L32.5749 7.168H36.2469C37.1469 7.168 37.8189 6.976 38.2629 6.592C38.7069 6.196 38.9289 5.656 38.9289 4.972C38.9289 4.276 38.7069 3.736 38.2629 3.352C37.8189 2.968 37.1469 2.776 36.2469 2.776H32.5749L33.8709 1.39V8.536ZM44.1913 13V0.399999H49.6453C50.7733 0.399999 51.7453 0.585999 52.5613 0.957999C53.3773 1.318 54.0073 1.84 54.4513 2.524C54.8953 3.208 55.1173 4.024 55.1173 4.972C55.1173 5.908 54.8953 6.718 54.4513 7.402C54.0073 8.074 53.3773 8.59 52.5613 8.95C51.7453 9.31 50.7733 9.49 49.6453 9.49H45.8113L47.1073 8.212V13H44.1913ZM52.2013 13L49.0513 8.428H52.1653L55.3513 13H52.2013ZM47.1073 8.536L45.8113 7.168H49.4833C50.3833 7.168 51.0553 6.976 51.4993 6.592C51.9433 6.196 52.1653 5.656 52.1653 4.972C52.1653 4.276 51.9433 3.736 51.4993 3.352C51.0553 2.968 50.3833 2.776 49.4833 2.776H45.8113L47.1073 1.39V8.536ZM55.7716 13L61.3876 0.399999H64.2676L69.9016 13H66.8416L62.2336 1.876H63.3856L58.7596 13H55.7716ZM58.5796 10.3L59.3536 8.086H65.8336L66.6256 10.3H58.5796ZM76.3065 13V0.399999H78.7185L84.0825 9.292H82.8045L88.0785 0.399999H90.4725L90.5085 13H87.7725L87.7545 4.594H88.2585L84.0465 11.668H82.7325L78.4305 4.594H79.0425V13H76.3065ZM93.4979 13V0.399999H96.4139V13H93.4979ZM99.4042 13V0.399999H102.32V10.624H108.638V13H99.4042ZM110.267 13V0.399999H113.183V10.624H119.501V13H110.267ZM123.813 5.476H129.879V7.744H123.813V5.476ZM124.029 10.66H130.887V13H121.131V0.399999H130.653V2.74H124.029V10.66ZM133.207 13V0.399999H138.661C139.789 0.399999 140.761 0.585999 141.577 0.957999C142.393 1.318 143.023 1.84 143.467 2.524C143.911 3.208 144.133 4.024 144.133 4.972C144.133 5.908 143.911 6.718 143.467 7.402C143.023 8.074 142.393 8.59 141.577 8.95C140.761 9.31 139.789 9.49 138.661 9.49H134.827L136.123 8.212V13H133.207ZM141.217 13L138.067 8.428H141.181L144.367 13H141.217ZM136.123 8.536L134.827 7.168H138.499C139.399 7.168 140.071 6.976 140.515 6.592C140.959 6.196 141.181 5.656 141.181 4.972C141.181 4.276 140.959 3.736 140.515 3.352C140.071 2.968 139.399 2.776 138.499 2.776H134.827L136.123 1.39V8.536Z" fill="black"/>
</svg>
