<svg width="129" height="13" viewBox="0 0 129 13" fill="none" xmlns="http://www.w3.org/2000/svg">
<path d="M5.008 12.192C4.112 12.192 3.25333 12.0747 2.432 11.84C1.61067 11.5947 0.949333 11.28 0.448 10.896L1.328 8.944C1.808 9.28533 2.37333 9.568 3.024 9.792C3.68533 10.0053 4.352 10.112 5.024 10.112C5.536 10.112 5.94667 10.064 6.256 9.968C6.576 9.86133 6.81067 9.71733 6.96 9.536C7.10933 9.35467 7.184 9.14667 7.184 8.912C7.184 8.61333 7.06667 8.37867 6.832 8.208C6.59733 8.02667 6.288 7.88267 5.904 7.776C5.52 7.65867 5.09333 7.552 4.624 7.456C4.16533 7.34933 3.70133 7.22133 3.232 7.072C2.77333 6.92267 2.352 6.73067 1.968 6.496C1.584 6.26133 1.26933 5.952 1.024 5.568C0.789333 5.184 0.672 4.69333 0.672 4.096C0.672 3.456 0.842667 2.87467 1.184 2.352C1.536 1.81867 2.05867 1.39733 2.752 1.088C3.456 0.768 4.336 0.608 5.392 0.608C6.096 0.608 6.78933 0.693333 7.472 0.863999C8.15467 1.024 8.75733 1.26933 9.28 1.6L8.48 3.568C7.95733 3.26933 7.43467 3.05067 6.912 2.912C6.38933 2.76267 5.87733 2.688 5.376 2.688C4.87467 2.688 4.464 2.74667 4.144 2.864C3.824 2.98133 3.59467 3.136 3.456 3.328C3.31733 3.50933 3.248 3.72267 3.248 3.968C3.248 4.256 3.36533 4.49067 3.6 4.672C3.83467 4.84267 4.144 4.98133 4.528 5.088C4.912 5.19467 5.33333 5.30133 5.792 5.408C6.26133 5.51467 6.72533 5.63733 7.184 5.776C7.65333 5.91467 8.08 6.10133 8.464 6.336C8.848 6.57067 9.15733 6.88 9.392 7.264C9.63733 7.648 9.76 8.13333 9.76 8.72C9.76 9.34933 9.584 9.92533 9.232 10.448C8.88 10.9707 8.352 11.392 7.648 11.712C6.95467 12.032 6.07467 12.192 5.008 12.192ZM11.5311 12V0.799999H14.1231V12H11.5311ZM19.1651 5.312H24.5571V7.328H19.1651V5.312ZM19.3571 9.92H25.4531V12H16.7811V0.799999H25.2451V2.88H19.3571V9.92ZM27.5155 12V0.799999H32.3635C33.3662 0.799999 34.2302 0.965333 34.9555 1.296C35.6808 1.616 36.2408 2.08 36.6355 2.688C37.0302 3.296 37.2275 4.02133 37.2275 4.864C37.2275 5.696 37.0302 6.416 36.6355 7.024C36.2408 7.62133 35.6808 8.08 34.9555 8.4C34.2302 8.72 33.3662 8.88 32.3635 8.88H28.9555L30.1075 7.744V12H27.5155ZM34.6355 12L31.8355 7.936H34.6035L37.4355 12H34.6355ZM30.1075 8.032L28.9555 6.816H32.2195C33.0195 6.816 33.6168 6.64533 34.0115 6.304C34.4062 5.952 34.6035 5.472 34.6035 4.864C34.6035 4.24533 34.4062 3.76533 34.0115 3.424C33.6168 3.08267 33.0195 2.912 32.2195 2.912H28.9555L30.1075 1.68V8.032ZM39.2811 12V0.799999H44.1291C45.1318 0.799999 45.9958 0.965333 46.7211 1.296C47.4465 1.616 48.0065 2.08 48.4011 2.688C48.7958 3.296 48.9931 4.02133 48.9931 4.864C48.9931 5.696 48.7958 6.416 48.4011 7.024C48.0065 7.62133 47.4465 8.08 46.7211 8.4C45.9958 8.72 45.1318 8.88 44.1291 8.88H40.7211L41.8731 7.744V12H39.2811ZM46.4011 12L43.6011 7.936H46.3691L49.2011 12H46.4011ZM41.8731 8.032L40.7211 6.816H43.9851C44.7851 6.816 45.3825 6.64533 45.7771 6.304C46.1718 5.952 46.3691 5.472 46.3691 4.864C46.3691 4.24533 46.1718 3.76533 45.7771 3.424C45.3825 3.08267 44.7851 2.912 43.9851 2.912H40.7211L41.8731 1.68V8.032ZM49.5747 12L54.5668 0.799999H57.1268L62.1348 12H59.4148L55.3188 2.112H56.3428L52.2308 12H49.5747ZM52.0707 9.6L52.7588 7.632H58.5188L59.2228 9.6H52.0707ZM67.828 12V0.799999H69.972L74.74 8.704H73.604L78.292 0.799999H80.42L80.452 12H78.02L78.004 4.528H78.452L74.708 10.816H73.54L69.716 4.528H70.26V12H67.828ZM83.1093 12V0.799999H85.7013V12H83.1093ZM88.3593 12V0.799999H90.9513V9.888H96.5673V12H88.3593ZM98.0155 12V0.799999H100.608V9.888H106.224V12H98.0155ZM110.056 5.312H115.448V7.328H110.056V5.312ZM110.248 9.92H116.344V12H107.672V0.799999H116.136V2.88H110.248V9.92ZM118.406 12V0.799999H123.254C124.257 0.799999 125.121 0.965333 125.846 1.296C126.571 1.616 127.131 2.08 127.526 2.688C127.921 3.296 128.118 4.02133 128.118 4.864C128.118 5.696 127.921 6.416 127.526 7.024C127.131 7.62133 126.571 8.08 125.846 8.4C125.121 8.72 124.257 8.88 123.254 8.88H119.846L120.998 7.744V12H118.406ZM125.526 12L122.726 7.936H125.494L128.326 12H125.526ZM120.998 8.032L119.846 6.816H123.11C123.91 6.816 124.507 6.64533 124.902 6.304C125.297 5.952 125.494 5.472 125.494 4.864C125.494 4.24533 125.297 3.76533 124.902 3.424C124.507 3.08267 123.91 2.912 123.11 2.912H119.846L120.998 1.68V8.032Z" fill="black"/>
</svg>
